<?xml version="1.0" encoding="UTF-8"?><svg xmlns="http://www.w3.org/2000/svg" xmlns:xlink="http://www.w3.org/1999/xlink" fill-opacity="1" color-rendering="auto" color-interpolation="auto" text-rendering="auto" stroke="black" stroke-linecap="square" width="535" stroke-miterlimit="10" shape-rendering="auto" stroke-opacity="1" fill="black" stroke-dasharray="none" font-weight="normal" stroke-width="1" height="443" font-family="'Dialog'" font-style="normal" stroke-linejoin="miter" font-size="12px" stroke-dashoffset="0" image-rendering="auto">
  <!--Generated by ySVG 2.5-->
  <defs id="genericDefs"/>
  <g>
    <defs id="defs1">
      <clipPath clipPathUnits="userSpaceOnUse" id="clipPath1">
        <path d="M0 0 L535 0 L535 443 L0 443 L0 0 Z"/>
      </clipPath>
      <clipPath clipPathUnits="userSpaceOnUse" id="clipPath2">
        <path d="M0 0 L0 18 L30 18 L30 0 Z"/>
      </clipPath>
      <script type="text/ecmascript"><![CDATA[      var SVGDocument = null;
      var SVGRoot = null;
      var TrueCoords = null;
      var lastElement = null;
      var initialized = null;
      var tipGroup;
      function Init(evt)
      {
         SVGDocument = evt.target.ownerDocument;
         SVGRoot = SVGDocument.documentElement;
         TrueCoords = SVGRoot.createSVGPoint();
         initialized = evt;
      };
      function GetTrueCoords(evt)
      {
         var newScale = SVGRoot.currentScale;
         var translation = SVGRoot.currentTranslate;
         TrueCoords.x = (evt.clientX - translation.x)/newScale;
         TrueCoords.y = (evt.clientY - translation.y)/newScale;
      };
      function HideTooltip( evt )
      {
         if(initialized == null) {
           Init(evt);
         }
         if(tipGroup != null) {
           tipGroup.setAttributeNS(null, 'visibility', 'hidden');
         }
      };
      function ShowTooltip( evt )
      {
         if(initialized == null) {
           Init(evt);
         }
         GetTrueCoords( evt );
         var tipScale = 1/SVGRoot.currentScale;
         var targetElement = evt.currentTarget;
         if ( lastElement != targetElement )
         {
            var targetId = targetElement.getAttributeNS(null, 'id');
            var tipId = 'tooltip.' + targetId;
            tipGroup = SVGDocument.getElementById(tipId);
            var xPos = TrueCoords.x + (10 * tipScale);
            var yPos = TrueCoords.y + (10 * tipScale);
            tipGroup.setAttributeNS(null, 'transform', 'translate(' + xPos + ',' + yPos + ') scale(' + tipScale + ')');
            tipGroup.setAttributeNS(null, 'visibility', 'visible');
         }
      };
]]></script>
    </defs>
    <g onmouseout="HideTooltip(evt)" id="y.node.0" onmousemove="ShowTooltip(evt)">
      <g fill="rgb(153,204,255)" text-rendering="geometricPrecision" shape-rendering="geometricPrecision" transform="matrix(1,0,0,1,274,700)" stroke="rgb(153,204,255)">
        <rect x="-153.8522" width="164.75" height="46.625" y="-684.35" stroke="none"/>
      </g>
      <g>
        <g text-rendering="geometricPrecision" stroke-miterlimit="1.45" shape-rendering="geometricPrecision" font-family="sans-serif" transform="matrix(1,0,0,1,274,700)" stroke-linecap="butt">
          <text x="-134.8375" xml:space="preserve" y="-656.3236" stroke="none">Ebay User Registration </text>
        </g>
      </g>
      <g/>
      <g text-rendering="geometricPrecision" stroke-miterlimit="1.45" shape-rendering="geometricPrecision" transform="matrix(1,0,0,1,274,700)" stroke-linecap="butt">
        <rect fill="none" x="-153.8522" width="164.75" height="46.625" y="-684.35"/>
      </g>
    </g>
    <g id="y.node.1">
      <g fill="lime" text-rendering="geometricPrecision" shape-rendering="geometricPrecision" transform="matrix(1,0,0,1,274,700)" stroke="lime">
        <rect x="-258.1085" width="117.2" height="27.6" y="-370.3952" stroke="none"/>
      </g>
      <g>
        <g text-rendering="geometricPrecision" stroke-miterlimit="1.45" shape-rendering="geometricPrecision" font-family="sans-serif" transform="matrix(1,0,0,1,274,700)" stroke-linecap="butt">
          <text x="-225.5212" xml:space="preserve" y="-351.8813" stroke="none">Category </text>
        </g>
      </g>
      <g text-rendering="geometricPrecision" stroke-miterlimit="1.45" shape-rendering="geometricPrecision" transform="matrix(1,0,0,1,274,700)" stroke-linecap="butt">
        <rect fill="none" x="-258.1085" width="117.2" height="27.6" y="-370.3952"/>
      </g>
    </g>
    <g id="y.node.2">
      <g fill="lime" text-rendering="geometricPrecision" shape-rendering="geometricPrecision" transform="matrix(1,0,0,1,274,700)" stroke="lime">
        <rect x="17.4872" width="117.2" height="27.6" y="-370.3952" stroke="none"/>
      </g>
      <g>
        <g text-rendering="geometricPrecision" stroke-miterlimit="1.45" shape-rendering="geometricPrecision" font-family="sans-serif" transform="matrix(1,0,0,1,274,700)" stroke-linecap="butt">
          <text x="62.7513" xml:space="preserve" y="-351.8813" stroke="none">Item </text>
        </g>
      </g>
      <g text-rendering="geometricPrecision" stroke-miterlimit="1.45" shape-rendering="geometricPrecision" transform="matrix(1,0,0,1,274,700)" stroke-linecap="butt">
        <rect fill="none" x="17.4872" width="117.2" height="27.6" y="-370.3952"/>
      </g>
    </g>
    <g id="y.node.3">
      <g fill="rgb(255,204,0)" text-rendering="geometricPrecision" shape-rendering="geometricPrecision" transform="matrix(1,0,0,1,274,700)" stroke="rgb(255,204,0)">
        <rect x="-120.5729" width="98.1915" height="53.025" y="-553.539" stroke="none"/>
      </g>
      <g>
        <g text-rendering="geometricPrecision" stroke-miterlimit="1.45" shape-rendering="geometricPrecision" font-family="sans-serif" transform="matrix(1,0,0,1,274,700)" stroke-linecap="butt">
          <text x="-110.8258" xml:space="preserve" y="-522.3126" stroke="none">Item Category </text>
        </g>
      </g>
      <g text-rendering="geometricPrecision" stroke-miterlimit="1.45" stroke-width="7" shape-rendering="geometricPrecision" transform="matrix(1,0,0,1,274,700)" stroke-linecap="butt">
        <rect fill="none" x="-120.5729" width="98.1915" height="53.025" y="-553.539"/>
      </g>
    </g>
    <g id="y.node.4">
      <g fill="rgb(51,153,102)" text-rendering="geometricPrecision" shape-rendering="geometricPrecision" transform="matrix(1,0,0,1,274,700)" stroke="rgb(51,153,102)">
        <path d="M-26.7043 -423.7077 L38.6957 -447.0203 L104.0956 -423.7077 L38.6957 -400.3952 Z" stroke="none" fill-rule="evenodd"/>
      </g>
      <g>
        <g text-rendering="geometricPrecision" stroke-miterlimit="1.45" shape-rendering="geometricPrecision" font-family="sans-serif" transform="matrix(1,0,0,1,274,700)" stroke-linecap="butt">
          <text x="-4.6519" xml:space="preserve" y="-418.9938" stroke="none">Describing Item </text>
        </g>
      </g>
      <g text-rendering="geometricPrecision" stroke-miterlimit="1.45" shape-rendering="geometricPrecision" transform="matrix(1,0,0,1,274,700)" stroke-linecap="butt">
        <path fill="none" d="M-26.7043 -423.7077 L38.6957 -447.0203 L104.0956 -423.7077 L38.6957 -400.3952 Z" fill-rule="evenodd"/>
      </g>
    </g>
    <g id="y.node.5">
      <g fill="rgb(51,153,102)" text-rendering="geometricPrecision" shape-rendering="geometricPrecision" transform="matrix(1,0,0,1,274,700)" stroke="rgb(51,153,102)">
        <path d="M-237.1085 -423.7077 L-171.7085 -447.0202 L-106.3085 -423.7077 L-171.7085 -400.3952 Z" stroke="none" fill-rule="evenodd"/>
      </g>
      <g>
        <g text-rendering="geometricPrecision" stroke-miterlimit="1.45" shape-rendering="geometricPrecision" font-family="sans-serif" transform="matrix(1,0,0,1,274,700)" stroke-linecap="butt">
          <text x="-217.063" xml:space="preserve" y="-418.9938" stroke="none">Picking Category</text>
        </g>
      </g>
      <g text-rendering="geometricPrecision" stroke-miterlimit="1.45" shape-rendering="geometricPrecision" transform="matrix(1,0,0,1,274,700)" stroke-linecap="butt">
        <path fill="none" d="M-237.1085 -423.7077 L-171.7085 -447.0202 L-106.3085 -423.7077 L-171.7085 -400.3952 Z" fill-rule="evenodd"/>
      </g>
    </g>
    <g id="y.node.6">
      <g fill="rgb(204,153,255)" text-rendering="geometricPrecision" shape-rendering="geometricPrecision" transform="matrix(1,0,0,1,274,700)" stroke="rgb(204,153,255)">
        <ellipse rx="49.0957" ry="20.1719" cx="-24.8085" cy="-292.6233" stroke="none"/>
      </g>
      <g>
        <g text-rendering="geometricPrecision" stroke-miterlimit="1.45" shape-rendering="geometricPrecision" font-family="sans-serif" transform="matrix(1,0,0,1,274,700)" stroke-linecap="butt">
          <text x="-56.4872" xml:space="preserve" y="-287.9095" stroke="none">Description </text>
        </g>
      </g>
      <g text-rendering="geometricPrecision" stroke-miterlimit="1.45" shape-rendering="geometricPrecision" transform="matrix(1,0,0,1,274,700)" stroke-linecap="butt">
        <ellipse rx="49.0957" fill="none" ry="20.1719" cx="-24.8085" cy="-292.6233"/>
      </g>
    </g>
    <g id="y.node.7">
      <g fill="rgb(204,153,255)" text-rendering="geometricPrecision" shape-rendering="geometricPrecision" transform="matrix(1,0,0,1,274,700)" stroke="rgb(204,153,255)">
        <ellipse rx="49.0957" ry="20.1719" cx="85.5915" cy="-292.6233" stroke="none"/>
      </g>
      <g>
        <g text-rendering="geometricPrecision" stroke-miterlimit="1.45" shape-rendering="geometricPrecision" font-family="sans-serif" transform="matrix(1,0,0,1,274,700)" stroke-linecap="butt">
          <text x="70.2546" xml:space="preserve" y="-287.9095" stroke="none">Price </text>
        </g>
      </g>
      <g text-rendering="geometricPrecision" stroke-miterlimit="1.45" shape-rendering="geometricPrecision" transform="matrix(1,0,0,1,274,700)" stroke-linecap="butt">
        <ellipse rx="49.0957" fill="none" ry="20.1719" cx="85.5915" cy="-292.6233"/>
      </g>
    </g>
    <g id="y.node.8">
      <g fill="rgb(204,153,255)" text-rendering="geometricPrecision" shape-rendering="geometricPrecision" transform="matrix(1,0,0,1,274,700)" stroke="rgb(204,153,255)">
        <ellipse rx="49.0957" ry="20.1719" cx="132.5787" cy="-594.7012" stroke="none"/>
      </g>
      <g>
        <g text-rendering="geometricPrecision" stroke-miterlimit="1.45" shape-rendering="geometricPrecision" font-family="sans-serif" transform="matrix(1,0,0,1,274,700)" stroke-linecap="butt">
          <text x="114.9068" xml:space="preserve" y="-589.9874" stroke="none">Name </text>
        </g>
      </g>
      <g text-rendering="geometricPrecision" stroke-miterlimit="1.45" shape-rendering="geometricPrecision" transform="matrix(1,0,0,1,274,700)" stroke-linecap="butt">
        <ellipse rx="49.0957" fill="none" ry="20.1719" cx="132.5787" cy="-594.7012"/>
      </g>
    </g>
    <g id="y.node.9">
      <g fill="rgb(204,153,255)" text-rendering="geometricPrecision" shape-rendering="geometricPrecision" transform="matrix(1,0,0,1,274,700)" stroke="rgb(204,153,255)">
        <ellipse rx="49.0957" ry="20.1719" cx="132.5787" cy="-533.3671" stroke="none"/>
      </g>
      <g>
        <g text-rendering="geometricPrecision" stroke-miterlimit="1.45" shape-rendering="geometricPrecision" font-family="sans-serif" transform="matrix(1,0,0,1,274,700)" stroke-linecap="butt">
          <text x="117.5758" xml:space="preserve" y="-528.6532" stroke="none">Email</text>
        </g>
      </g>
      <g text-rendering="geometricPrecision" stroke-miterlimit="1.45" shape-rendering="geometricPrecision" transform="matrix(1,0,0,1,274,700)" stroke-linecap="butt">
        <ellipse rx="49.0957" fill="none" ry="20.1719" cx="132.5787" cy="-533.3671"/>
      </g>
    </g>
    <g id="y.node.10">
      <g fill="rgb(204,153,255)" text-rendering="geometricPrecision" shape-rendering="geometricPrecision" transform="matrix(1,0,0,1,274,700)" stroke="rgb(204,153,255)">
        <ellipse rx="49.0957" ry="20.1719" cx="132.5787" cy="-661.0375" stroke="none"/>
      </g>
      <g>
        <g text-rendering="geometricPrecision" stroke-miterlimit="1.45" shape-rendering="geometricPrecision" font-family="sans-serif" transform="matrix(1,0,0,1,274,700)" stroke-linecap="butt">
          <text x="103.9059" xml:space="preserve" y="-656.3236" stroke="none">UserName</text>
        </g>
      </g>
      <g text-rendering="geometricPrecision" stroke-miterlimit="1.45" shape-rendering="geometricPrecision" transform="matrix(1,0,0,1,274,700)" stroke-linecap="butt">
        <ellipse rx="49.0957" fill="none" ry="20.1719" cx="132.5787" cy="-661.0375"/>
      </g>
    </g>
    <g id="y.node.11">
      <g fill="rgb(204,153,255)" text-rendering="geometricPrecision" shape-rendering="geometricPrecision" transform="matrix(1,0,0,1,274,700)" stroke="rgb(204,153,255)">
        <ellipse rx="49.0957" ry="20.1719" cx="195.9915" cy="-292.6233" stroke="none"/>
      </g>
      <g>
        <g text-rendering="geometricPrecision" stroke-miterlimit="1.45" shape-rendering="geometricPrecision" font-family="sans-serif" transform="matrix(1,0,0,1,274,700)" stroke-linecap="butt">
          <text x="175.6507" xml:space="preserve" y="-287.9095" stroke="none">Picture </text>
        </g>
      </g>
      <g text-rendering="geometricPrecision" stroke-miterlimit="1.45" shape-rendering="geometricPrecision" transform="matrix(1,0,0,1,274,700)" stroke-linecap="butt">
        <ellipse rx="49.0957" fill="none" ry="20.1719" cx="195.9915" cy="-292.6233"/>
      </g>
    </g>
    <g id="y.edge.7">
      <g text-rendering="geometricPrecision" stroke-miterlimit="1.45" shape-rendering="geometricPrecision" transform="matrix(1,0,0,1,274,700)" stroke-linecap="butt">
        <path fill="none" d="M-71.4772 -553.5389 L-71.4772 -637.725"/>
      </g>
    </g>
    <g id="y.edge.3">
      <g text-rendering="geometricPrecision" stroke-miterlimit="1.45" shape-rendering="geometricPrecision" transform="matrix(1,0,0,1,274,700)" stroke-linecap="butt">
        <path fill="none" d="M68.3986 -370.3952 L49.5297 -404.2622"/>
      </g>
    </g>
    <g id="y.edge.4">
      <g text-rendering="geometricPrecision" stroke-miterlimit="1.45" shape-rendering="geometricPrecision" transform="matrix(1,0,0,1,274,700)" stroke-linecap="butt">
        <path fill="none" d="M20.7012 -440.5828 L-43.2058 -500.5139"/>
      </g>
    </g>
    <g id="y.edge.6">
      <g text-rendering="geometricPrecision" stroke-miterlimit="1.45" shape-rendering="geometricPrecision" transform="matrix(1,0,0,1,274,700)" stroke-linecap="butt">
        <path fill="none" d="M-193.7921 -370.3952 L-180.1301 -403.3771"/>
      </g>
    </g>
    <g id="y.edge.5">
      <g text-rendering="geometricPrecision" stroke-miterlimit="1.45" shape-rendering="geometricPrecision" transform="matrix(1,0,0,1,274,700)" stroke-linecap="butt">
        <path fill="none" d="M-154.8973 -441.0368 L-97.1974 -500.5139"/>
      </g>
    </g>
    <g id="y.edge.2">
      <g text-rendering="geometricPrecision" stroke-miterlimit="1.45" shape-rendering="geometricPrecision" transform="matrix(1,0,0,1,274,700)" stroke-linecap="butt">
        <path fill="none" d="M1.8906 -309.5516 L54.322 -342.7952"/>
      </g>
    </g>
    <g id="y.edge.1">
      <g text-rendering="geometricPrecision" stroke-miterlimit="1.45" shape-rendering="geometricPrecision" transform="matrix(1,0,0,1,274,700)" stroke-linecap="butt">
        <path fill="none" d="M82.6001 -312.7577 L78.1375 -342.7952"/>
      </g>
    </g>
    <g id="y.edge.9">
      <g text-rendering="geometricPrecision" stroke-miterlimit="1.45" shape-rendering="geometricPrecision" transform="matrix(1,0,0,1,274,700)" stroke-linecap="butt">
        <path fill="none" d="M94.0771 -607.2177 L0.234 -637.725"/>
      </g>
    </g>
    <g id="y.edge.10">
      <g text-rendering="geometricPrecision" stroke-miterlimit="1.45" shape-rendering="geometricPrecision" transform="matrix(1,0,0,1,274,700)" stroke-linecap="butt">
        <path fill="none" d="M105.6294 -550.2283 L-34.2168 -637.725"/>
      </g>
    </g>
    <g id="y.edge.8">
      <g text-rendering="geometricPrecision" stroke-miterlimit="1.45" shape-rendering="geometricPrecision" transform="matrix(1,0,0,1,274,700)" stroke-linecap="butt">
        <path fill="none" d="M83.483 -661.0375 L10.8978 -661.0375"/>
      </g>
    </g>
    <g id="y.edge.0">
      <g text-rendering="geometricPrecision" stroke-miterlimit="1.45" shape-rendering="geometricPrecision" transform="matrix(1,0,0,1,274,700)" stroke-linecap="butt">
        <path fill="none" d="M166.036 -308.6053 L101.9529 -342.7952"/>
      </g>
    </g>
    <g visibility="hidden" id="tooltip.y.node.0" pointer-events="none">
      <g fill="rgb(255,255,225)" text-rendering="geometricPrecision" shape-rendering="geometricPrecision" font-family="'Segoe UI'" stroke="rgb(255,255,225)">
        <rect x="0" width="30" height="18" y="0" clip-path="url(#clipPath2)" stroke="none"/>
        <text fill="black" x="4" xml:space="preserve" y="14" clip-path="url(#clipPath2)" stroke="none">asdf</text>
      </g>
      <g font-family="'Segoe UI'" text-rendering="geometricPrecision" shape-rendering="geometricPrecision">
        <path d="M0 0 L30 0 L30 18 L0 18 L0 0 ZM1 1 L29 1 L29 17 L1 17 L1 1 Z" fill-rule="evenodd" clip-path="url(#clipPath2)" stroke="none"/>
      </g>
    </g>
  </g>
</svg>
