<?xml version="1.0" encoding="UTF-8"?><svg xmlns="http://www.w3.org/2000/svg" xmlns:xlink="http://www.w3.org/1999/xlink" fill-opacity="1" color-rendering="auto" color-interpolation="auto" text-rendering="auto" stroke="black" stroke-linecap="square" width="676" stroke-miterlimit="10" shape-rendering="auto" stroke-opacity="1" fill="black" stroke-dasharray="none" font-weight="normal" stroke-width="1" height="631" font-family="'Dialog'" font-style="normal" stroke-linejoin="miter" font-size="12px" stroke-dashoffset="0" image-rendering="auto">
  <!--Generated by ySVG 2.5-->
  <defs id="genericDefs"/>
  <g>
    <defs id="defs1">
      <clipPath clipPathUnits="userSpaceOnUse" id="clipPath1">
        <path d="M0 0 L676 0 L676 631 L0 631 L0 0 Z"/>
      </clipPath>
      <clipPath clipPathUnits="userSpaceOnUse" id="clipPath2">
        <path d="M-50 -104 L626 -104 L626 527 L-50 527 L-50 -104 Z"/>
      </clipPath>
    </defs>
    <g fill="aqua" text-rendering="geometricPrecision" shape-rendering="geometricPrecision" transform="matrix(1,0,0,1,50,104)" stroke="aqua">
      <rect x="105.25" width="146" height="45" y="-89" clip-path="url(#clipPath2)" stroke="none"/>
    </g>
    <g text-rendering="geometricPrecision" stroke-miterlimit="1.45" shape-rendering="geometricPrecision" font-family="sans-serif" transform="matrix(1,0,0,1,50,104)" stroke-linecap="butt">
      <text x="114.8896" xml:space="preserve" y="-61.7861" clip-path="url(#clipPath2)" stroke="none">Ebay User Registration </text>
      <rect fill="none" x="105.25" width="146" height="45" y="-89" clip-path="url(#clipPath2)"/>
    </g>
    <g fill="rgb(204,153,255)" text-rendering="geometricPrecision" shape-rendering="geometricPrecision" transform="matrix(1,0,0,1,50,104)" stroke="rgb(204,153,255)">
      <ellipse rx="64" ry="25.5" clip-path="url(#clipPath2)" cx="363.5" cy="-51.5" stroke="none"/>
    </g>
    <g text-rendering="geometricPrecision" stroke-miterlimit="1.45" shape-rendering="geometricPrecision" font-family="sans-serif" transform="matrix(1,0,0,1,50,104)" stroke-linecap="butt">
      <text x="334.1562" xml:space="preserve" y="-46.7861" clip-path="url(#clipPath2)" stroke="none">Username </text>
      <ellipse rx="64" fill="none" ry="25.5" clip-path="url(#clipPath2)" cx="363.5" cy="-51.5"/>
    </g>
    <g fill="rgb(204,153,255)" text-rendering="geometricPrecision" shape-rendering="geometricPrecision" transform="matrix(1,0,0,1,50,104)" stroke="rgb(204,153,255)">
      <ellipse rx="64" ry="25.5" clip-path="url(#clipPath2)" cx="363.5" cy="23" stroke="none"/>
    </g>
    <g text-rendering="geometricPrecision" stroke-miterlimit="1.45" shape-rendering="geometricPrecision" font-family="sans-serif" transform="matrix(1,0,0,1,50,104)" stroke-linecap="butt">
      <text x="346.8301" xml:space="preserve" y="27.7139" clip-path="url(#clipPath2)" stroke="none">Email </text>
      <ellipse rx="64" fill="none" ry="25.5" clip-path="url(#clipPath2)" cx="363.5" cy="23"/>
    </g>
    <g fill="rgb(204,153,255)" text-rendering="geometricPrecision" shape-rendering="geometricPrecision" transform="matrix(1,0,0,1,50,104)" stroke="rgb(204,153,255)">
      <ellipse rx="64" ry="28" clip-path="url(#clipPath2)" cx="363.5" cy="97.5" stroke="none"/>
    </g>
    <g text-rendering="geometricPrecision" stroke-miterlimit="1.45" shape-rendering="geometricPrecision" font-family="sans-serif" transform="matrix(1,0,0,1,50,104)" stroke-linecap="butt">
      <text x="345.8281" xml:space="preserve" y="102.2139" clip-path="url(#clipPath2)" stroke="none">Name </text>
      <ellipse rx="64" fill="none" ry="28" clip-path="url(#clipPath2)" cx="363.5" cy="97.5"/>
    </g>
    <g fill="rgb(204,153,255)" text-rendering="geometricPrecision" shape-rendering="geometricPrecision" transform="matrix(1,0,0,1,50,104)" stroke="rgb(204,153,255)">
      <ellipse rx="64" ry="28" clip-path="url(#clipPath2)" cx="235.5" cy="483.75" stroke="none"/>
    </g>
    <g text-rendering="geometricPrecision" stroke-miterlimit="1.45" shape-rendering="geometricPrecision" font-family="sans-serif" transform="matrix(1,0,0,1,50,104)" stroke-linecap="butt">
      <text x="190.4854" xml:space="preserve" y="488.4639" clip-path="url(#clipPath2)" stroke="none">Text Description </text>
      <ellipse rx="64" fill="none" ry="28" clip-path="url(#clipPath2)" cx="235.5" cy="483.75"/>
    </g>
    <g fill="rgb(255,204,0)" text-rendering="geometricPrecision" shape-rendering="geometricPrecision" transform="matrix(1,0,0,1,50,104)" stroke="rgb(255,204,0)">
      <rect x="132.5" width="128" height="56" y="174.5" clip-path="url(#clipPath2)" stroke="none"/>
    </g>
    <g text-rendering="geometricPrecision" stroke-miterlimit="1.45" shape-rendering="geometricPrecision" font-family="sans-serif" transform="matrix(1,0,0,1,50,104)" stroke-linecap="butt">
      <text x="156.8145" xml:space="preserve" y="207.2139" clip-path="url(#clipPath2)" stroke="none">Listing An Item</text>
      <rect x="132.5" y="174.5" clip-path="url(#clipPath2)" fill="none" width="128" height="56" stroke-width="3"/>
    </g>
    <g fill="rgb(153,204,0)" text-rendering="geometricPrecision" shape-rendering="geometricPrecision" transform="matrix(1,0,0,1,50,104)" stroke="rgb(153,204,0)">
      <rect x="-25.5" width="128" height="51" y="360.25" clip-path="url(#clipPath2)" stroke="none"/>
    </g>
    <g text-rendering="geometricPrecision" stroke-miterlimit="1.45" shape-rendering="geometricPrecision" font-family="sans-serif" transform="matrix(1,0,0,1,50,104)" stroke-linecap="butt">
      <text x="14.1543" xml:space="preserve" y="390.4639" clip-path="url(#clipPath2)" stroke="none">Category</text>
      <rect fill="none" x="-25.5" width="128" height="51" y="360.25" clip-path="url(#clipPath2)"/>
    </g>
    <g fill="rgb(153,204,0)" text-rendering="geometricPrecision" shape-rendering="geometricPrecision" transform="matrix(1,0,0,1,50,104)" stroke="rgb(153,204,0)">
      <rect x="290.5" width="128" height="50" y="360.75" clip-path="url(#clipPath2)" stroke="none"/>
    </g>
    <g text-rendering="geometricPrecision" stroke-miterlimit="1.45" shape-rendering="geometricPrecision" font-family="sans-serif" transform="matrix(1,0,0,1,50,104)" stroke-linecap="butt">
      <text x="341.1641" xml:space="preserve" y="390.4639" clip-path="url(#clipPath2)" stroke="none">Item </text>
      <rect fill="none" x="290.5" width="128" height="50" y="360.75" clip-path="url(#clipPath2)"/>
    </g>
    <g fill="teal" text-rendering="geometricPrecision" shape-rendering="geometricPrecision" transform="matrix(1,0,0,1,50,104)" stroke="teal">
      <path d="M-34.5 273.5 L38.5 238 L111.5 273.5 L38.5 309 Z" fill-rule="evenodd" clip-path="url(#clipPath2)" stroke="none"/>
    </g>
    <g text-rendering="geometricPrecision" stroke-miterlimit="1.45" shape-rendering="geometricPrecision" font-family="sans-serif" transform="matrix(1,0,0,1,50,104)" stroke-linecap="butt">
      <text x="1.1523" xml:space="preserve" y="278.2139" clip-path="url(#clipPath2)" stroke="none">Pick Category</text>
      <path fill="none" d="M-34.5 273.5 L38.5 238 L111.5 273.5 L38.5 309 Z" clip-path="url(#clipPath2)" fill-rule="evenodd"/>
    </g>
    <g fill="teal" text-rendering="geometricPrecision" shape-rendering="geometricPrecision" transform="matrix(1,0,0,1,50,104)" stroke="teal">
      <path d="M281.5 273.5 L354.5 239 L427.5 273.5 L354.5 308 Z" fill-rule="evenodd" clip-path="url(#clipPath2)" stroke="none"/>
    </g>
    <g text-rendering="geometricPrecision" stroke-miterlimit="1.45" shape-rendering="geometricPrecision" font-family="sans-serif" transform="matrix(1,0,0,1,50,104)" stroke-linecap="butt">
      <text x="317.4893" xml:space="preserve" y="278.2139" clip-path="url(#clipPath2)" stroke="none">Describe Item</text>
      <path fill="none" d="M281.5 273.5 L354.5 239 L427.5 273.5 L354.5 308 Z" clip-path="url(#clipPath2)" fill-rule="evenodd"/>
    </g>
    <g fill="rgb(204,153,255)" text-rendering="geometricPrecision" shape-rendering="geometricPrecision" transform="matrix(1,0,0,1,50,104)" stroke="rgb(204,153,255)">
      <ellipse rx="64" ry="28" clip-path="url(#clipPath2)" cx="389" cy="483.75" stroke="none"/>
    </g>
    <g text-rendering="geometricPrecision" stroke-miterlimit="1.45" shape-rendering="geometricPrecision" font-family="sans-serif" transform="matrix(1,0,0,1,50,104)" stroke-linecap="butt">
      <text x="373.6631" xml:space="preserve" y="488.4639" clip-path="url(#clipPath2)" stroke="none">Price </text>
      <ellipse rx="64" fill="none" ry="28" clip-path="url(#clipPath2)" cx="389" cy="483.75"/>
    </g>
    <g fill="rgb(204,153,255)" text-rendering="geometricPrecision" shape-rendering="geometricPrecision" transform="matrix(1,0,0,1,50,104)" stroke="rgb(204,153,255)">
      <ellipse rx="64" ry="28" clip-path="url(#clipPath2)" cx="547" cy="483.75" stroke="none"/>
    </g>
    <g text-rendering="geometricPrecision" stroke-miterlimit="1.45" shape-rendering="geometricPrecision" font-family="sans-serif" transform="matrix(1,0,0,1,50,104)" stroke-linecap="butt">
      <text x="519.6631" xml:space="preserve" y="488.4639" clip-path="url(#clipPath2)" stroke="none">Picture(s) </text>
      <ellipse rx="64" fill="none" ry="28" clip-path="url(#clipPath2)" cx="547" cy="483.75"/>
      <path fill="none" d="M251.25 -57.4491 L299.2318 -51.5 L299.5 -51.5" clip-path="url(#clipPath2)"/>
      <path fill="none" d="M224.8212 -44 L322.7803 3.3271" clip-path="url(#clipPath2)"/>
      <path fill="none" d="M203.6654 -44 L335.1454 72.398" clip-path="url(#clipPath2)"/>
      <path fill="none" d="M194.6004 174.5 L179.7765 -44" clip-path="url(#clipPath2)"/>
      <path fill="none" d="M265.5259 459.0228 L324.1429 410.75" clip-path="url(#clipPath2)"/>
      <path fill="none" d="M38.5 360.25 L38.5 309.0387" clip-path="url(#clipPath2)"/>
      <path fill="none" d="M76.4185 256.4607 L134.1901 230.5" clip-path="url(#clipPath2)"/>
      <path fill="none" d="M354.5 360.75 L354.5 307.9655" clip-path="url(#clipPath2)"/>
      <path fill="none" d="M317.0444 256.6687 L258.8098 230.5" clip-path="url(#clipPath2)"/>
      <path fill="none" d="M379.2577 456.0763 L363.301 410.75" clip-path="url(#clipPath2)"/>
      <path fill="none" d="M505.2869 462.5143 L403.6071 410.75" clip-path="url(#clipPath2)"/>
    </g>
  </g>
</svg>
